<svg width="163" height="26" viewBox="0 0 163 26" fill="none" xmlns="http://www.w3.org/2000/svg">
<g clip-path="url(#clip0_8572_22279)">
<path fill-rule="evenodd" clip-rule="evenodd" d="M48.9375 6.16495C52.714 6.16495 55.7752 9.2251 55.7752 13C55.7752 16.7749 52.714 19.8351 48.9375 19.8351V26C56.12 26 61.9427 20.1797 61.9427 13C61.9427 5.8203 56.12 0 48.9375 0V6.16495Z" fill="#00DEC4"/>
<path fill-rule="evenodd" clip-rule="evenodd" d="M48.9371 6.16495C45.1606 6.16495 42.0991 9.2251 42.0991 13C42.0991 16.7749 45.1606 19.8351 48.9371 19.8351V26C41.7544 26 35.9316 20.1797 35.9316 13C35.9316 5.8203 41.7544 0 48.9371 0C50.6401 0 52.0209 1.38007 52.0209 3.08247C52.0209 4.78487 50.6401 6.16495 48.9371 6.16495Z" fill="#C74FFF"/>
<path d="M77.6306 0C79.3336 7.44145e-08 80.7144 1.38007 80.7144 3.08247V17.6907C80.7144 18.875 81.6749 19.8351 82.8596 19.8351C84.0439 19.8351 85.0039 18.8759 85.0049 17.6923C85.0049 17.6918 85.0049 17.6912 85.0049 17.6907V3.08247C85.0049 1.38007 86.3854 -1.34739e-07 88.0884 0C89.7916 7.44145e-08 91.1721 1.38007 91.1721 3.08247V17.6907C91.1721 22.2798 87.4506 26 82.8596 26C78.2686 26 74.5469 22.2798 74.5469 17.6907V3.08247C74.5469 1.38007 75.9274 -1.34739e-07 77.6306 0Z" fill="#00DEC4"/>
<path d="M70.2554 3.08247C70.2554 1.38007 68.8749 7.44145e-08 67.1716 0C65.4686 -1.34739e-07 64.0879 1.38007 64.0879 3.08247V17.6907C64.0879 17.6917 64.0879 17.6926 64.0879 17.6935C64.0894 22.2813 67.8106 26 72.4006 26C76.9916 26 80.7134 22.2798 80.7134 17.6907C80.7134 15.9883 79.3326 14.6082 77.6296 14.6082C75.9264 14.6082 74.5459 15.9883 74.5459 17.6907C74.5459 18.875 73.5854 19.8351 72.4006 19.8351C71.2159 19.8351 70.2554 18.875 70.2554 17.6907V3.08247Z" fill="#C74FFF"/>
<path d="M25.7416 3.08247C25.7416 1.38007 24.3611 0 22.658 0C20.9549 0 19.5742 1.38007 19.5742 3.08247V22.9175C19.5742 24.6199 20.9549 26 22.658 26H33.9204C35.6234 26 37.0041 24.6199 37.0041 22.9175C37.0041 21.2151 35.6234 19.8351 33.9204 19.8351H25.7416V3.08247Z" fill="#C74FFF"/>
<path d="M3.08375 0C1.38064 0 0 1.38007 0 3.08247C0 3.08332 3.4098e-07 3.08418 1.02281e-06 3.085L1.55542e-07 22.9175C0 24.6199 1.38064 26 3.08375 26C4.78685 26 6.1675 24.6199 6.1675 22.9175V6.16495H14.3461C16.0492 6.16495 17.4299 4.78487 17.4299 3.08247C17.4299 1.38007 16.0492 0 14.3461 0H3.08375Z" fill="#00DEC4"/>
<path d="M6.1675 17.4228H14.3461C16.0492 17.4228 17.4299 16.0427 17.4299 14.3403C17.4299 12.6379 16.0492 11.2578 14.3461 11.2578H3.08375C1.38064 11.2578 2.93985e-07 12.6379 2.19538e-07 14.3403L0 22.9176C-1.55542e-07 24.62 1.38064 26.0001 3.08375 26.0001C4.78685 26.0001 6.1675 24.62 6.1675 22.9176V17.4228Z" fill="#C74FFF"/>
<path fill-rule="evenodd" clip-rule="evenodd" d="M22.658 17.4227C20.9549 17.4227 19.5742 16.0426 19.5742 14.3402V3.08247C19.5742 1.38007 20.9549 0 22.658 0C24.3611 0 25.7416 1.38007 25.7416 3.08247V14.3402C25.7416 16.0426 24.3611 17.4227 22.658 17.4227Z" fill="#00DEC4"/>
<path fill-rule="evenodd" clip-rule="evenodd" d="M67.1716 17.4227C65.4686 17.4227 64.0879 16.0426 64.0879 14.3402V3.08247C64.0879 1.38007 65.4686 -1.34739e-07 67.1716 0C68.8749 7.44145e-08 70.2554 1.38007 70.2554 3.08247V14.3402C70.2554 16.0426 68.8749 17.4227 67.1716 17.4227Z" fill="#00DEC4"/>
<path d="M96.4002 6.16495H104.981C106.388 6.16495 107.528 7.305 107.528 8.71135C107.528 10.1177 106.388 11.2577 104.981 11.2577H96.4002V17.4227H104.981C109.794 17.4227 113.696 13.5225 113.696 8.71135C113.696 3.9002 109.794 -2.10301e-07 104.981 0L96.4002 1.34739e-07C94.6972 1.34739e-07 93.3164 1.38007 93.3164 3.08247C93.3164 4.78487 94.6972 6.16495 96.4002 6.16495Z" fill="#FF4F90"/>
<path fill-rule="evenodd" clip-rule="evenodd" d="M96.4002 11.2578C98.1034 11.2578 99.4839 12.6379 99.4839 14.3403V22.9176C99.4839 24.62 98.1034 26.0001 96.4002 26.0001C94.6972 26.0001 93.3164 24.62 93.3164 22.9176V14.3403C93.3164 12.6379 94.6972 11.2578 96.4002 11.2578Z" fill="#FCAE00"/>
<path d="M140.244 6.837C140.244 6.83635 140.244 6.8357 140.244 6.83505V3.08247C140.244 1.38007 141.625 0 143.328 0C145.031 0 146.412 1.38007 146.412 3.08247V6.83325C146.412 6.83385 146.412 6.83445 146.412 6.83505C146.412 9.5737 148.633 11.7938 151.372 11.7938C154.112 11.7938 156.333 9.5737 156.333 6.83505V3.08247C156.333 1.38007 157.714 0 159.417 0C161.12 0 162.501 1.38007 162.501 3.08247V6.83505C162.501 12.9785 157.518 17.9588 151.372 17.9588C145.227 17.9588 140.245 12.9795 140.244 6.837Z" fill="#FCAE00"/>
<path d="M126.97 6.16495C124.23 6.16495 122.009 8.38507 122.009 11.1237V22.9175C122.009 24.6199 120.629 26 118.926 26C117.223 26 115.842 24.6199 115.842 22.9175V11.1237C115.842 4.98025 120.824 0 126.97 0C133.116 0 138.099 4.98025 138.099 11.1237V22.9175C138.099 24.6199 136.718 26 135.015 26C133.312 26 131.931 24.6199 131.931 22.9175V11.1237C131.931 11.1228 131.931 11.1219 131.931 11.121C131.93 8.3836 129.709 6.16495 126.97 6.16495Z" fill="#FCAE00"/>
<path d="M52.021 22.9174C52.021 24.6198 50.6403 25.9999 48.9373 25.9999C47.234 25.9999 45.8535 24.6198 45.8535 22.9174C45.8535 21.215 47.234 19.835 48.9373 19.835C50.6403 19.835 52.021 21.215 52.021 22.9174Z" fill="#00DEC4"/>
<path fill-rule="evenodd" clip-rule="evenodd" d="M151.371 25.9999C149.668 25.9999 148.287 24.6198 148.287 22.9174V14.8762C148.287 13.1738 149.668 11.7937 151.371 11.7937C153.074 11.7937 154.455 13.1738 154.455 14.8762V22.9174C154.455 24.6198 153.074 25.9999 151.371 25.9999Z" fill="#FF4F90"/>
<path fill-rule="evenodd" clip-rule="evenodd" d="M135.015 25.9999C133.312 25.9999 131.932 24.6198 131.932 22.9174V14.8762C131.932 13.1738 133.312 11.7937 135.015 11.7937C136.718 11.7937 138.099 13.1738 138.099 14.8762V22.9174C138.099 24.6198 136.718 25.9999 135.015 25.9999Z" fill="#FF4F90"/>
<path d="M124.668 14.8837C124.668 13.184 126.046 11.8062 127.746 11.8062H135.015C136.715 11.8062 138.092 13.184 138.092 14.8837C138.092 16.5834 136.715 17.9613 135.015 17.9613H127.746C126.046 17.9613 124.668 16.5834 124.668 14.8837Z" fill="#FF4F90"/>
</g>
<defs>
<clipPath id="clip0_8572_22279">
<rect width="162.5" height="26" fill="white"/>
</clipPath>
</defs>
</svg>